<?xml version="1.0" standalone="no"?>
<!DOCTYPE svg PUBLIC "-//W3C//DTD SVG 20010904//EN"
 "http://www.w3.org/TR/2001/REC-SVG-20010904/DTD/svg10.dtd">
<svg version="1.0" xmlns="http://www.w3.org/2000/svg"
 width="604.000000pt" height="604.000000pt" viewBox="0 0 604.000000 604.000000"
 preserveAspectRatio="xMidYMid meet">
<metadata>
Created by potrace 1.11, written by Peter Selinger 2001-2013
</metadata>
<g transform="translate(0.000000,604.000000) scale(0.100000,-0.100000)"
fill="#000000" stroke="none">
<path d="M3067 5704 c-1 -1 -52 -4 -113 -8 -61 -4 -119 -8 -130 -10 -10 -2
-46 -7 -79 -10 -148 -17 -382 -73 -542 -132 -245 -88 -438 -210 -628 -398
-154 -151 -209 -216 -311 -367 -169 -249 -271 -522 -291 -778 -11 -138 -4
-435 12 -461 1 -3 6 -31 9 -63 4 -33 12 -71 17 -85 6 -15 10 -28 9 -30 -1 -1
1 -15 4 -30 4 -15 8 -36 11 -47 10 -52 57 -192 94 -285 93 -231 207 -428 510
-885 145 -218 200 -341 217 -480 16 -141 12 -334 -10 -475 -35 -220 -140 -413
-452 -825 l-23 -30 1253 0 1252 0 -31 75 c-18 41 -38 100 -45 130 -7 30 -16
70 -21 89 -4 18 -7 75 -6 125 2 75 6 97 25 128 25 40 61 57 113 53 19 -2 72
-6 119 -10 47 -4 92 -8 100 -10 8 -1 47 -6 85 -10 335 -35 589 24 664 156 27
48 50 149 47 207 -2 27 -16 77 -32 112 -43 96 -39 126 39 283 92 186 102 221
101 347 0 58 -2 130 -4 160 -2 30 -1 61 4 68 12 20 75 56 141 81 310 120 325
185 118 521 -35 58 -69 114 -76 124 -7 11 -15 25 -20 30 -16 23 -54 84 -89
141 -141 237 -159 316 -102 441 72 159 89 283 71 514 -7 82 -34 257 -42 270
-2 4 -6 19 -9 35 -18 96 -85 282 -152 417 -129 263 -300 470 -493 599 -177
119 -486 239 -701 273 -19 3 -44 8 -56 10 -12 2 -43 7 -70 10 -27 4 -65 8 -84
11 -86 11 -395 25 -403 19z"/>
</g>
</svg>
